<?xml version="1.0" encoding="UTF-8"?>
<!-- Generator: visioncortex VTracer 0.6.3 -->
<svg version="1.1" xmlns="http://www.w3.org/2000/svg" width="1280" height="1280">
<path d="M0 0 C1.36 -0.02 2.72 -0.01 4.09 0.01 C4.83 0 5.58 0 6.34 -0 C8.82 -0.01 11.29 0.01 13.77 0.03 C15.51 0.04 17.24 0.04 18.98 0.04 C22.64 0.04 26.29 0.06 29.95 0.08 C34.57 0.12 39.19 0.12 43.81 0.12 C91.75 0.13 91.75 0.13 111.34 5.56 C114.24 6.35 117.05 6.94 120 7.43 C132.98 9.94 146.14 17.49 155.75 26.49 C155.75 27.15 155.75 27.81 155.75 28.49 C156.74 28.82 157.73 29.15 158.75 29.49 C158.75 30.15 158.75 30.81 158.75 31.49 C159.41 31.49 160.07 31.49 160.75 31.49 C164.76 36.95 167.82 43.01 169.75 49.49 C169.96 50.18 170.16 50.86 170.37 51.57 C174.15 66.08 171.27 81.97 164.39 95.08 C156.3 108.74 144.12 119.52 128.75 124.49 C127.76 124.49 126.77 124.49 125.75 124.49 C126.08 125.48 126.41 126.47 126.75 127.49 C127.87 127.57 127.87 127.57 129.02 127.64 C130 127.72 130.99 127.79 132 127.87 C132.97 127.94 133.95 128.01 134.95 128.08 C137.68 128.48 139.35 129.24 141.75 130.49 C147.66 130.49 151.23 128.16 156.14 125.05 C159.35 123.14 162.63 121.82 166.13 120.55 C168.36 119.65 170.4 118.65 172.52 117.54 C176.67 115.44 180.83 114.12 185.31 112.93 C186.01 112.74 186.71 112.54 187.42 112.34 C189.86 111.68 192.3 111.08 194.75 110.49 C195.82 110.23 196.9 109.96 198 109.68 C207.63 107.49 216.75 107.09 226.58 107.21 C229.1 107.25 231.63 107.25 234.15 107.26 C235.77 107.27 237.38 107.28 238.99 107.29 C239.74 107.3 240.49 107.3 241.27 107.3 C246.52 107.38 246.52 107.38 248.75 108.49 C250.79 108.81 252.83 109.1 254.88 109.37 C260.25 110.18 264.78 111.38 269.75 113.49 C272.08 114.4 274.41 115.29 276.75 116.18 C278.75 116.95 280.75 117.72 282.75 118.49 C282.75 119.15 282.75 119.81 282.75 120.49 C283.47 120.6 284.19 120.7 284.93 120.81 C294.72 123.18 302.75 131.71 309.75 138.49 C310.62 139.3 311.49 140.1 312.38 140.92 C317 145.94 318.2 150.51 318.08 157.19 C318.08 157.91 318.07 158.63 318.07 159.37 C318.07 160.87 318.05 162.38 318.03 163.88 C318 166.19 317.99 168.49 317.98 170.79 C317.98 172.26 317.97 173.73 317.95 175.19 C317.95 175.88 317.94 176.57 317.94 177.28 C317.9 180.29 317.71 182.62 316.75 185.49 C314.42 185.11 313.08 184.83 311.41 183.11 C311.02 182.54 310.64 181.96 310.25 181.37 C309.87 180.81 309.49 180.25 309.09 179.67 C307.98 177.86 306.92 176.01 305.89 174.14 C303.88 170.61 301.56 167.45 299.06 164.24 C298.63 163.69 298.2 163.14 297.76 162.57 C294.1 157.87 290.31 153.29 286.47 148.74 C284.75 146.49 284.75 146.49 283.75 143.49 C282.43 142.8 281.09 142.14 279.75 141.49 C277.66 139.91 275.61 138.32 273.56 136.68 C264.88 129.9 255.98 125.57 245.75 121.49 C244.88 121.13 244 120.76 243.1 120.38 C240.03 119.22 237 118.94 233.75 118.49 C232.29 117.99 232.29 117.99 230.81 117.48 C225.38 115.89 219.79 116.21 214.19 116.24 C213.08 116.24 211.97 116.23 210.82 116.22 C205.37 116.23 200.87 116.41 195.75 118.49 C194.01 118.82 192.26 119.11 190.5 119.37 C179.28 121.33 167.89 126.7 158.75 133.49 C158.42 134.15 158.09 134.81 157.75 135.49 C160.72 136.81 163.69 138.13 166.75 139.49 C166.75 140.15 166.75 140.81 166.75 141.49 C167.47 141.57 168.19 141.65 168.93 141.72 C172.49 142.7 174.24 144.31 176.94 146.81 C178.23 147.98 178.23 147.98 179.54 149.17 C181.52 151.25 182.67 152.87 183.75 155.49 C184.41 155.49 185.07 155.49 185.75 155.49 C195.6 169.33 199.33 184.97 199.19 201.74 C199.18 203.02 199.18 204.29 199.17 205.61 C199.01 215.16 197.96 223.48 194.75 232.49 C194.46 233.4 194.17 234.31 193.88 235.25 C191.38 242.38 187.08 248.37 182.75 254.49 C184.51 256.26 187.02 255.63 189.41 255.65 C190.63 255.65 191.86 255.66 193.13 255.67 C194.5 255.68 195.88 255.68 197.25 255.68 C198.69 255.69 200.12 255.7 201.56 255.71 C204.66 255.73 207.76 255.74 210.86 255.75 C215.76 255.78 220.66 255.8 225.56 255.83 C235.96 255.89 246.35 255.94 256.75 255.99 C267.97 256.05 279.2 256.11 290.42 256.17 C295.29 256.2 300.17 256.22 305.04 256.24 C308.07 256.26 311.09 256.27 314.12 256.29 C315.53 256.3 316.94 256.31 318.35 256.31 C320.26 256.32 322.18 256.33 324.09 256.34 C325.71 256.35 325.71 256.35 327.35 256.36 C329.75 256.49 329.75 256.49 330.75 257.49 C330.87 260.08 330.93 262.64 330.94 265.22 C330.95 266.03 330.96 266.84 330.97 267.68 C330.99 270.37 331.01 273.06 331.02 275.76 C331.03 276.67 331.03 277.59 331.04 278.54 C331.07 283.4 331.09 288.27 331.1 293.13 C331.12 298.15 331.16 303.17 331.21 308.2 C331.25 312.06 331.26 315.92 331.26 319.78 C331.27 321.63 331.29 323.48 331.31 325.33 C331.34 327.93 331.34 330.52 331.33 333.12 C331.35 333.88 331.37 334.64 331.38 335.43 C331.32 341.26 329.69 343.52 325.75 347.49 C325.19 348.11 324.64 348.73 324.06 349.37 C322.75 350.49 322.75 350.49 320.75 350.49 C320.42 351.48 320.09 352.47 319.75 353.49 C319.09 353.49 318.43 353.49 317.75 353.49 C317.42 354.48 317.09 355.47 316.75 356.49 C316.09 356.49 315.43 356.49 314.75 356.49 C314.75 357.15 314.75 357.81 314.75 358.49 C313.07 360 313.07 360 310.88 361.62 C310.16 362.16 309.44 362.7 308.7 363.25 C306.75 364.49 306.75 364.49 304.75 364.49 C304.75 365.15 304.75 365.81 304.75 366.49 C286.51 379.04 264.78 387.36 242.75 389.49 C241.82 389.83 240.89 390.16 239.94 390.5 C236.42 391.6 233.56 391.75 229.88 391.76 C228.58 391.76 227.29 391.77 225.95 391.77 C225.28 391.76 224.61 391.76 223.92 391.76 C221.89 391.74 219.86 391.76 217.82 391.77 C211.09 391.75 205.19 391.46 198.75 389.49 C197.32 389.31 195.88 389.15 194.44 389.06 C173.09 386.93 146.16 373.23 130.75 358.49 C130.75 357.83 130.75 357.17 130.75 356.49 C129.76 356.16 128.77 355.83 127.75 355.49 C127.75 354.83 127.75 354.17 127.75 353.49 C126.76 353.16 125.77 352.83 124.75 352.49 C124.75 351.83 124.75 351.17 124.75 350.49 C124.09 350.49 123.43 350.49 122.75 350.49 C122.75 349.83 122.75 349.17 122.75 348.49 C121.76 348.16 120.77 347.83 119.75 347.49 C119.75 346.83 119.75 346.17 119.75 345.49 C118.76 345.16 117.77 344.83 116.75 344.49 C115.14 342.72 115.14 342.72 113.56 340.56 C112.77 339.49 112.77 339.49 111.96 338.4 C110.75 336.49 110.75 336.49 110.75 334.49 C110.09 334.49 109.43 334.49 108.75 334.49 C102.63 326.65 98.26 317.2 93.72 308.38 C92.86 306.7 91.97 305.03 91.08 303.36 C89.29 299.5 88.5 295.63 87.59 291.49 C86.68 288.24 85.29 285.5 83.75 282.49 C82.13 282.48 82.13 282.48 80.47 282.47 C70.27 282.39 60.07 282.3 49.88 282.21 C44.63 282.16 39.39 282.11 34.15 282.07 C29.09 282.04 24.03 281.99 18.97 281.94 C17.04 281.92 15.11 281.9 13.18 281.89 C10.48 281.87 7.78 281.85 5.08 281.81 C4.27 281.81 3.47 281.81 2.64 281.81 C-1.17 281.75 -3 281.66 -6.25 279.49 C-6.63 277.49 -6.63 277.49 -6.63 274.96 C-6.64 274.01 -6.64 273.05 -6.65 272.06 C-6.64 271 -6.64 269.93 -6.63 268.84 C-6.64 267.72 -6.64 266.6 -6.64 265.44 C-6.66 261.66 -6.65 257.87 -6.64 254.09 C-6.64 251.38 -6.65 248.68 -6.65 245.98 C-6.67 239.38 -6.66 232.79 -6.66 226.19 C-6.65 220.83 -6.65 215.47 -6.65 210.11 C-6.65 209.35 -6.65 208.59 -6.65 207.8 C-6.65 206.25 -6.65 204.71 -6.66 203.16 C-6.66 188.63 -6.65 174.11 -6.64 159.59 C-6.62 147.12 -6.63 134.65 -6.64 122.18 C-6.66 107.71 -6.66 93.24 -6.65 78.77 C-6.65 77.23 -6.65 75.69 -6.65 74.15 C-6.65 73.39 -6.65 72.63 -6.65 71.85 C-6.65 66.49 -6.65 61.14 -6.66 55.79 C-6.67 49.26 -6.66 42.74 -6.65 36.21 C-6.64 32.88 -6.64 29.55 -6.65 26.22 C-6.66 22.62 -6.65 19.01 -6.63 15.4 C-6.64 14.35 -6.64 13.29 -6.65 12.2 C-6.64 11.23 -6.64 10.27 -6.63 9.28 C-6.63 8.44 -6.63 7.61 -6.63 6.75 C-5.9 2.41 -4.31 0.66 0 0 Z M28.75 8.49 C28.64 11.35 28.59 14.17 28.58 17.03 C28.58 17.89 28.58 18.76 28.57 19.65 C28.57 21.49 28.56 23.33 28.56 25.17 C28.56 27.95 28.54 30.74 28.53 33.53 C28.52 35.32 28.52 37.11 28.52 38.9 C28.51 39.73 28.51 40.55 28.5 41.4 C28.52 46.34 29.09 50.81 30.29 55.6 C31 58.53 31.19 61.45 31.41 64.45 C31.8 66.77 32.65 68.43 33.75 70.49 C34.21 72.11 34.67 73.72 35.11 75.35 C36.44 79.8 38.13 84.14 39.75 88.49 C40.41 88.49 41.07 88.49 41.75 88.49 C42.01 89.37 42.28 90.25 42.55 91.15 C47.76 105.61 58.67 115.49 72.14 122.18 C82.36 125.9 97.52 125.97 107.56 121.62 C108.97 120.92 110.36 120.22 111.75 119.49 C112.82 119 113.9 118.5 115 117.99 C126.8 111.56 131.98 100.19 135.63 87.87 C137.11 82.42 137.72 77.14 137.75 71.49 C137.78 70.57 137.8 69.65 137.83 68.71 C137.87 65.96 137.83 63.24 137.75 60.49 C137.73 59.61 137.72 58.73 137.7 57.82 C137.11 46.28 132.54 35.06 124.75 26.49 C116.16 19 106.56 14.25 95.81 10.74 C95.18 10.53 94.55 10.32 93.9 10.11 C84.69 7.26 74.98 7.34 65.43 7.36 C64.4 7.36 63.38 7.36 62.32 7.36 C60.18 7.36 58.04 7.36 55.89 7.36 C52.6 7.37 49.3 7.36 46.01 7.36 C43.92 7.36 41.83 7.36 39.74 7.36 C38.75 7.36 37.77 7.36 36.75 7.36 C35.84 7.36 34.94 7.36 34 7.37 C32.8 7.37 32.8 7.37 31.58 7.37 C29.73 7.29 29.73 7.29 28.75 8.49 Z M28.75 79.49 C28.75 144.5 28.75 209.51 28.75 276.49 C46.9 276.49 65.05 276.49 83.75 276.49 C83.26 269.07 83.26 269.07 82.75 261.49 C82.12 239.92 82.74 216.13 92.75 196.49 C93.07 195.7 93.39 194.9 93.72 194.07 C95.95 188.49 98.6 182.99 102.06 178.06 C104.03 175.59 104.03 175.59 103.75 172.49 C104.41 172.49 105.07 172.49 105.75 172.49 C107.24 170.58 107.24 170.58 108.69 168.18 C110.16 165.84 111.47 163.77 113.44 161.83 C114.98 160.57 114.98 160.57 114.75 158.49 C115.41 158.49 116.07 158.49 116.75 158.49 C118.53 156.81 118.53 156.81 120.31 154.68 C120.93 153.97 121.55 153.27 122.19 152.54 C123.93 150.48 123.93 150.48 124.75 147.49 C126.06 146.79 127.4 146.13 128.75 145.49 C131.48 143.58 131.48 143.58 133.75 141.49 C133.75 140.83 133.75 140.17 133.75 139.49 C134.41 139.16 135.07 138.83 135.75 138.49 C124.7 131.01 111.11 130.53 98.19 130.21 C77.82 129.69 62.3 125.79 47.75 110.49 C45.2 107.29 42.93 103.96 40.75 100.49 C40.36 99.88 39.97 99.26 39.57 98.62 C35.97 92.59 33.28 86.03 30.75 79.49 C30.09 79.49 29.43 79.49 28.75 79.49 Z M142.38 148.56 C140.01 151.2 138.44 153.53 136.84 156.65 C135.75 158.49 135.75 158.49 133.82 160.83 C130.17 165.54 128.11 171.06 125.75 176.49 C125.38 177.35 125 178.2 124.62 179.07 C119.29 191.75 115.64 205.36 115.13 219.12 C115.09 219.99 115.05 220.87 115.01 221.77 C114.71 229.35 114.57 236.91 114.75 244.49 C114.77 245.27 114.79 246.04 114.8 246.84 C114.87 249.35 114.96 251.86 115.06 254.37 C115.09 255.14 115.11 255.92 115.13 256.71 C115.4 262.37 116.73 267.22 118.75 272.49 C132.43 271.79 141.24 265.51 150.5 255.62 C162.87 241.35 165.12 224 165.01 205.63 C165 203.56 165.01 201.49 165.02 199.43 C165.04 187.11 164.01 175.73 158.75 164.49 C158.38 163.65 158.01 162.81 157.63 161.94 C154.9 156.05 151.6 150.87 146.75 146.49 C144.48 146.28 144.48 146.28 142.38 148.56 Z M173.19 261.99 C172.36 262.46 171.54 262.92 170.68 263.4 C169.73 263.94 169.73 263.94 168.75 264.49 C168.75 265.15 168.75 265.81 168.75 266.49 C167.91 266.77 167.07 267.04 166.21 267.31 C163.23 268.33 160.32 269.44 157.4 270.6 C145.61 275.22 133.42 278.57 120.75 279.49 C120.52 284.28 120.52 284.28 122.75 288.49 C123.31 290.29 123.31 290.29 123.88 292.12 C127.48 303.27 132.9 314.01 139.75 323.49 C140.6 324.74 141.44 325.99 142.29 327.24 C149.55 337.99 156.61 348.25 166.75 356.49 C167.6 357.22 168.44 357.94 169.31 358.68 C175.48 363.87 181.84 368.36 188.75 372.49 C189.41 372.9 190.07 373.3 190.75 373.71 C197.1 377.46 203.46 379.85 210.56 381.62 C217.53 383.38 217.53 383.38 219.75 384.49 C223.82 384.71 227.89 384.68 231.96 384.68 C233.98 384.68 236 384.7 238.01 384.72 C239.29 384.72 240.57 384.72 241.89 384.72 C243.06 384.73 244.23 384.73 245.44 384.74 C248.86 384.49 251.55 383.68 254.75 382.49 C256.77 382.08 258.79 381.69 260.81 381.31 C271.31 378.9 279.86 373.29 288.56 367.18 C289.18 366.75 289.8 366.32 290.43 365.87 C291.91 364.8 293.34 363.65 294.75 362.49 C294.75 361.83 294.75 361.17 294.75 360.49 C295.41 360.49 296.07 360.49 296.75 360.49 C298.45 357.09 297.88 353.2 297.86 349.45 C297.86 348.05 297.86 348.05 297.86 346.62 C297.86 343.51 297.86 340.41 297.85 337.3 C297.85 335.15 297.84 333 297.84 330.85 C297.84 325.19 297.83 319.52 297.82 313.86 C297.81 308.08 297.8 302.3 297.8 296.52 C297.79 285.18 297.77 273.84 297.75 262.49 C293.61 262.47 289.47 262.46 285.33 262.45 C283.92 262.45 282.52 262.44 281.12 262.43 C261.73 262.34 241.61 262.56 222.75 267.49 C222.42 267.82 222.09 268.15 221.75 268.49 C220.82 268.58 219.89 268.66 218.94 268.74 C207.9 270.23 194.96 277.35 185.75 283.49 C185.75 284.15 185.75 284.81 185.75 285.49 C183.44 285.82 181.13 286.15 178.75 286.49 C178.75 277.58 178.75 268.67 178.75 259.49 C176.75 259.49 174.87 261.04 173.19 261.99 Z " fill="#46646D" transform="translate(494.2498321533203,323.5055236816406)"/>
<path d="M0 0 C1.12 3.75 1.12 3.75 0 6 C-0.19 13.13 1.55 19.36 6 25 C6.99 25.33 7.98 25.66 9 26 C9.12 25.38 9.25 24.76 9.38 24.12 C10 22 10 22 12 20 C13.8 15.31 13.66 9.86 12 5.19 C11.67 4.47 11.34 3.74 11 3 C11 2.01 11 1.02 11 0 C15.25 0.47 17.23 2.93 20 6 C21.89 9.78 21.63 13.9 21 18 C19.49 21.22 17.69 23.68 15 26 C11.62 27 11.62 27 9 27 C9.66 28.11 10.32 29.23 11 30.38 C13 33.75 13 33.75 13 36 C13.66 36 14.32 36 15 36 C16.33 37.57 16.33 37.57 17.81 39.69 C19.71 42.32 21.5 44.5 23.81 46.81 C26 49 26 49 27 52 C28.83 53.06 28.83 53.06 31 54 C32.45 54.98 33.88 55.99 35.31 57 C39.18 59.63 42.44 61.03 47 62 C45 65 45 65 42.86 65.62 C34.41 66.47 28.69 64.06 22 59 C22 58.34 22 57.68 22 57 C21.34 57 20.68 57 20 57 C18.38 55.62 18.38 55.62 17 54 C17 53.34 17 52.68 17 52 C15.51 51.5 15.51 51.5 14 51 C14 50.34 14 49.68 14 49 C12.51 48.5 12.51 48.5 11 48 C11 47.34 11 46.68 11 46 C10.34 46 9.68 46 9 46 C6.07 42.89 3.57 39.41 1 36 C0.25 35.05 -0.5 34.1 -1.27 33.12 C-7.17 25.14 -8.68 18.6 -7.8 8.77 C-7.07 5.07 -5.85 3.89 -2.88 1.56 C-1.93 1.05 -0.98 0.53 0 0 Z " fill="#46646D" transform="translate(672,793)"/>
<path d="M0 0 C-0.72 1.12 -0.72 1.12 -1.46 2.27 C-2.09 3.25 -2.72 4.24 -3.38 5.25 C-4.31 6.71 -4.31 6.71 -5.27 8.2 C-8.96 14.17 -9.37 18.23 -9.38 25.19 C-9.4 26.1 -9.42 27 -9.45 27.94 C-9.49 38.35 -5.14 46.6 1.81 54.25 C4.94 57.31 7.75 58.15 12 59 C12 59.99 12 60.98 12 62 C6.14 63.7 1.39 62.54 -4 60 C-12.91 54.01 -17.65 46.04 -21 36 C-22.07 23.48 -18.98 13.72 -11 4 C-7.09 0.73 -4.99 -0.19 0 0 Z " fill="#46646D" transform="translate(501,798)"/>
<path d="M0 0 C5.28 0.78 9.36 2.49 13.31 6.12 C15.61 10.03 16.36 13.47 16 18 C14.94 20.68 13.68 22.61 12 25 C11.34 25 10.68 25 10 25 C10 25.66 10 26.32 10 27 C9.34 27.33 8.68 27.66 8 28 C8.61 28.3 9.23 28.61 9.86 28.92 C17.98 33.12 17.98 33.12 20 38 C20.41 38.89 20.82 39.77 21.25 40.69 C22.51 46.26 22.03 51.63 19.75 56.88 C17.66 59.42 15.8 61.24 13 63 C9.69 63.25 9.69 63.25 7 63 C7.5 60.41 8.15 58.76 9.56 56.5 C12.1 50.31 11.95 43.72 9.75 37.44 C6.36 32.71 2.25 31.12 -3 29 C-3 28.34 -3 27.68 -3 27 C-2.36 26.71 -1.72 26.42 -1.06 26.12 C1.15 25.17 1.15 25.17 2 23 C2.66 23 3.32 23 4 23 C4.94 13.32 4.94 13.32 1.5 4.62 C0.68 3.76 -0.15 2.89 -1 2 C-0.67 1.34 -0.34 0.68 0 0 Z " fill="#46646D" transform="translate(375,795)"/>
<path d="M0 0 C8.71 -0.67 17.12 3.07 23.81 8.46 C30.74 14.82 34.59 22.71 35.12 32.08 C35.45 42.8 32.07 51.26 24.92 59.23 C22.15 61.79 19.56 62.84 16 64 C16 59.79 18.08 57.78 20.49 54.45 C25.36 46.54 24.92 37.09 23.57 28.15 C21.77 21.14 17.96 13.89 12.02 9.55 C10.38 8.64 8.69 7.81 7 7 C6.67 6.34 6.34 5.68 6 5 C3.98 4.35 3.98 4.35 2 4 C2 3.34 2 2.68 2 2 C1.34 2 0.68 2 0 2 C0 1.34 0 0.68 0 0 Z " fill="#46646D" transform="translate(866,793)"/>
<path d="M0 0 C9.22 -0.59 17.66 2.7 24.81 8.46 C31.21 14.34 35.51 22.13 36.24 30.85 C36.49 41.78 34.12 50.57 27 59 C26.34 59 25.68 59 25 59 C25 59.66 25 60.32 25 61 C22.36 61.66 19.72 62.32 17 63 C17.33 62.43 17.65 61.86 17.99 61.28 C24.24 50.23 27.88 40.42 24.94 27.62 C22.24 18.52 16.05 10.16 8 5 C5.36 4.29 5.36 4.29 3 4 C3 3.34 3 2.68 3 2 C2.01 1.67 1.02 1.34 0 1 C0 0.67 0 0.34 0 0 Z " fill="#46646D" transform="translate(512,793)"/>
<path d="M0 0 C0 0.66 0 1.32 0 2 C-0.76 2.74 -1.53 3.49 -2.31 4.25 C-8.56 10.65 -9.45 18.38 -10 27 C-9.74 37.66 -5.1 46.76 2 54.62 C5.46 57.36 7.73 58.15 12 59 C12 59.99 12 60.98 12 62 C5.91 63.65 1.5 61.74 -4 59 C-12.28 53.38 -18.2 45.57 -20.44 35.75 C-21.03 31.89 -20.97 28.82 -20 25 C-19.89 24.31 -19.77 23.63 -19.66 22.92 C-17.97 13.42 -13.24 7.82 -6.18 1.47 C-4 0 -4 0 0 0 Z " fill="#46646D" transform="translate(425,798)"/>
<path d="M0 0 C0.66 0.33 1.32 0.66 2 1 C1.19 2.65 0.38 4.29 -0.44 5.94 C-0.89 6.85 -1.34 7.77 -1.81 8.71 C-3 11 -3 11 -4 12 C-6 23.99 -6.12 35.13 0.33 45.67 C1.96 48.08 1.96 48.08 4.2 50.18 C6 52 6 52 6 54 C9.23 55.74 12.51 56.89 16 58 C15.67 58.99 15.34 59.98 15 61 C11.04 62.69 8.11 61.35 4.26 59.96 C1.13 58.63 -1.33 57.12 -4 55 C-4 54.34 -4 53.68 -4 53 C-4.58 52.77 -5.15 52.55 -5.75 52.31 C-10.71 49.42 -13.39 44.39 -15 39 C-15.44 35.51 -15.46 32.08 -15.44 28.56 C-15.46 27.66 -15.48 26.76 -15.5 25.83 C-15.49 19.58 -14.28 15.3 -11 10 C-10.58 9.27 -10.16 8.54 -9.73 7.79 C-7.02 3.85 -4.65 1.65 0 0 Z " fill="#46646D" transform="translate(849,799)"/>
<path d="M0 0 C0.99 0.5 0.99 0.5 2 1 C3.3 1.04 4.6 1.08 5.94 1.12 C12.19 1.74 17.21 5.08 22 9 C22.33 9.99 22.66 10.98 23 12 C23.99 12.33 24.98 12.66 26 13 C26.33 14.65 26.66 16.3 27 18 C27.66 18 28.32 18 29 18 C32.26 23.3 32.55 27.71 32.5 33.75 C32.49 34.64 32.49 35.53 32.48 36.45 C32.22 45.94 29.42 51.59 23.06 58.56 C19.87 61.57 17.54 63 13 63 C13.99 62.5 13.99 62.5 15 62 C15.35 60.67 15.69 59.34 16 58 C16.66 57.01 17.32 56.02 18 55 C18.66 55 19.32 55 20 55 C20.22 53.82 20.22 53.82 20.44 52.62 C21 50 21 50 22 48 C22.24 44.53 22.19 41.04 22.19 37.56 C22.21 36.11 22.21 36.11 22.22 34.63 C22.23 33.24 22.23 33.24 22.23 31.82 C22.24 30.54 22.24 30.54 22.24 29.24 C22.14 26.71 22.14 26.71 20 24 C19.88 21.31 19.88 21.31 20 19 C19.01 18.67 18.02 18.34 17 18 C15.61 16.29 15.61 16.29 14.19 14.19 C10.41 8.95 6.08 6.15 0 4 C0 2.68 0 1.36 0 0 Z " fill="#46646D" transform="translate(440,793)"/>
<path d="M0 0 C2.94 -0.08 5.87 -0.14 8.81 -0.19 C9.65 -0.21 10.48 -0.24 11.34 -0.26 C12.54 -0.28 12.54 -0.28 13.77 -0.29 C14.88 -0.32 14.88 -0.32 16.01 -0.34 C18.6 0.1 19.43 0.93 21 3 C21.81 6.5 21.81 6.5 22 10 C21.01 11.49 21.01 11.49 20 13 C20.52 13.72 21.03 14.44 21.56 15.19 C23 18 23 18 23.06 20.5 C21.46 24.27 19.76 26.45 16 28 C10.96 28.53 6.05 28.57 1 28 C-1 26 -1 26 -1.24 23.6 C-1.24 22.62 -1.23 21.64 -1.23 20.62 C-1.23 19.56 -1.23 18.49 -1.22 17.39 C-1.21 16.27 -1.2 15.15 -1.19 14 C-1.19 12.88 -1.19 11.76 -1.19 10.61 C-1.14 2.28 -1.14 2.28 0 0 Z M6 5 C6 6.65 6 8.3 6 10 C8.64 10 11.28 10 14 10 C14.33 9.01 14.66 8.02 15 7 C11.56 4.71 10.01 4.82 6 5 Z M6 15 C6 17.31 6 19.62 6 22 C10.46 21.5 10.46 21.5 15 21 C15 19.68 15 18.36 15 17 C13.04 14.59 13.04 14.59 9.38 14.88 C7.7 14.94 7.7 14.94 6 15 Z " fill="#46646D" transform="translate(666,905)"/>
<path d="M0 0 C2.42 -0.43 2.42 -0.43 5 0 C6.8 1.68 6.8 1.68 8.31 3.88 C8.82 4.59 9.34 5.31 9.86 6.05 C11 8 11 8 11 10 C11.99 10.33 12.98 10.66 14 11 C14.99 12.49 14.99 12.49 16 14 C16.05 13.24 16.1 12.48 16.15 11.7 C16.22 10.71 16.3 9.71 16.38 8.69 C16.44 7.7 16.51 6.72 16.59 5.7 C17 3 17 3 19 0 C20.94 0.31 20.94 0.31 23 1 C24.49 5.46 24.18 9.83 24.19 14.5 C24.2 15.46 24.21 16.43 24.22 17.42 C24.23 18.8 24.23 18.8 24.23 20.22 C24.23 21.06 24.24 21.91 24.24 22.78 C24 25 24 25 22 28 C19.67 28.52 19.67 28.52 17 28 C14.61 25.66 14.61 25.66 12.31 22.62 C11.16 21.13 11.16 21.13 9.99 19.6 C9.33 18.74 8.68 17.88 8 17 C7.34 16.34 6.68 15.68 6 15 C5.67 18.96 5.34 22.92 5 27 C3.35 27.33 1.7 27.66 0 28 C-2.17 24.74 -2.26 23.77 -2.27 20 C-2.27 19.03 -2.27 18.06 -2.27 17.06 C-2.27 16.05 -2.26 15.04 -2.25 14 C-2.26 12.99 -2.27 11.98 -2.27 10.94 C-2.27 9.97 -2.27 9 -2.27 8 C-2.26 7.11 -2.26 6.23 -2.26 5.31 C-2 3 -2 3 0 0 Z " fill="#46646D" transform="translate(688,956)"/>
<path d="M0 0 C1.66 0 1.66 0 3.34 0 C6.79 0.48 8.75 1.34 11.5 3.44 C11.5 4.1 11.5 4.76 11.5 5.44 C12.16 5.44 12.82 5.44 13.5 5.44 C14.98 10.66 15.02 15.88 13.94 21.19 C11.71 24.67 9.3 26.77 5.5 28.44 C0.84 29.35 -3.43 29.55 -7.69 27.26 C-11.77 23.97 -14.13 20.82 -14.71 15.52 C-14.93 10.98 -14.44 8.08 -11.5 4.44 C-7.67 0.77 -5.29 -0.09 0 0 Z M-7.5 10.44 C-8.02 14.07 -7.88 16.45 -6.56 19.88 C-3.65 22.08 -1.23 21.88 2.34 21.87 C5.03 21.33 5.92 20.66 7.5 18.44 C8.17 15.37 8.11 12.51 7.5 9.44 C5.01 7.09 3.33 6.58 0 6 C-3.55 6.62 -5.1 7.76 -7.5 10.44 Z " fill="#46646D" transform="translate(749.5,904.5625)"/>
<path d="M0 0 C1.08 -0.03 1.08 -0.03 2.18 -0.06 C5.44 -0.09 7.7 0.01 10.55 1.66 C12.41 3.54 13.35 4.7 14.12 7.25 C13.81 10.8 13.25 13.87 12.12 17.25 C11.47 17.25 10.8 17.25 10.12 17.25 C11.12 20.55 12.11 23.85 13.12 27.25 C8.12 28.25 8.12 28.25 6.12 27.25 C5.69 26.42 5.26 25.6 4.81 24.75 C3.35 22.03 3.35 22.03 0.56 21.44 C-1.8 21.22 -1.8 21.22 -3.88 21.25 C-3.88 23.56 -3.88 25.87 -3.88 28.25 C-5.54 28.29 -7.21 28.29 -8.88 28.25 C-9.88 27.25 -9.88 27.25 -9.99 24.75 C-9.98 23.67 -9.98 22.58 -9.97 21.46 C-9.97 20.3 -9.97 19.13 -9.96 17.92 C-9.95 16.69 -9.95 15.46 -9.94 14.19 C-9.93 12.95 -9.93 11.72 -9.92 10.44 C-9.91 7.38 -9.9 4.31 -9.88 1.25 C-6.75 -0.31 -3.43 0.02 0 0 Z M-3.88 7.25 C-3.88 9.23 -3.88 11.21 -3.88 13.25 C-1.35 14.51 -0.02 14.17 2.75 13.81 C3.57 13.71 4.38 13.61 5.23 13.5 C5.85 13.42 6.48 13.34 7.12 13.25 C7.46 11.6 7.78 9.95 8.12 8.25 C4.32 5.71 0.35 5.14 -3.88 7.25 Z " fill="#46646D" transform="translate(610.875,955.75)"/>
<path d="M0 0 C4.1 2.53 6.48 5.45 8 10 C8.3 15.46 8.19 19.32 4.66 23.64 C1.38 26.94 -1.24 28.44 -5.94 28.69 C-11.26 28.35 -15.01 26.47 -19 23 C-21.95 19.59 -22.54 16.57 -22.35 12.06 C-21.58 7.54 -19.47 4.09 -15.75 1.34 C-10.7 -1.12 -5.47 -0.96 0 0 Z M-14 9 C-15.3 10.09 -15.3 10.09 -15.25 12.75 C-14.96 16.49 -14.49 18.19 -12 21 C-8.35 22.01 -5.87 22.21 -2.19 21.31 C0.43 19.74 1.18 18.94 2 16 C1.85 12.44 1.41 10.54 -0.75 7.69 C-6.14 3.65 -8.9 5.06 -14 9 Z " fill="#46646D" transform="translate(719,905)"/>
<path d="M0 0 C0.9 0.31 0.9 0.31 1.81 0.62 C0.44 3.12 0.44 3.12 -1.19 5.62 C-1.85 5.62 -2.51 5.62 -3.19 5.62 C-3.38 6.23 -3.57 6.83 -3.77 7.45 C-4.03 8.25 -4.29 9.05 -4.56 9.88 C-4.82 10.66 -5.07 11.45 -5.34 12.27 C-6.19 14.62 -6.19 14.62 -7.27 16.47 C-9.68 22.11 -9.04 30.6 -7.39 36.43 C-6.02 39.57 -4.38 42.33 -2.5 45.19 C-0.64 48.64 -0.52 51.73 -0.19 55.62 C-2.5 55.29 -4.81 54.97 -7.19 54.62 C-7.68 53.14 -7.68 53.14 -8.19 51.62 C-8.85 51.62 -9.51 51.62 -10.19 51.62 C-16.23 43.76 -19.45 34.59 -18.19 24.62 C-17.35 21.23 -16.32 17.93 -15.19 14.62 C-14.53 14.62 -13.87 14.62 -13.19 14.62 C-13.04 13.52 -13.04 13.52 -12.9 12.39 C-12.09 9.24 -10.99 7.82 -8.81 5.44 C-7.9 4.43 -7.9 4.43 -6.98 3.39 C-3.02 -0.52 -3.02 -0.52 0 0 Z " fill="#46646D" transform="translate(783.1875,798.375)"/>
<path d="M0 0 C6.27 0 12.54 0 19 0 C19.33 0.99 19.66 1.98 20 3 C19.01 4.49 19.01 4.49 18 6 C15.4 6.29 15.4 6.29 12.38 6.19 C10.87 6.15 10.87 6.15 9.34 6.11 C8.18 6.05 8.18 6.05 7 6 C7 7.32 7 8.64 7 10 C10.96 10.33 14.92 10.66 19 11 C19 12.65 19 14.3 19 16 C17.26 17.74 14.81 17.37 12.44 17.56 C11.43 17.65 10.41 17.73 9.37 17.82 C8.59 17.88 7.81 17.94 7 18 C6.67 19.32 6.34 20.64 6 22 C10.29 22 14.58 22 19 22 C19.66 23.65 20.32 25.3 21 27 C19.41 28.59 17.76 28.13 15.56 28.13 C14.22 28.13 14.22 28.13 12.85 28.14 C11.91 28.13 10.97 28.13 10 28.12 C8.59 28.13 8.59 28.13 7.15 28.14 C6.25 28.14 5.36 28.13 4.44 28.13 C3.61 28.13 2.78 28.13 1.93 28.13 C0 28 0 28 -1 27 C-1.1 25.17 -1.13 23.34 -1.13 21.5 C-1.13 20.39 -1.14 19.27 -1.14 18.12 C-1.13 16.95 -1.13 15.77 -1.12 14.56 C-1.13 13.39 -1.13 12.22 -1.14 11.01 C-1.14 9.9 -1.13 8.78 -1.13 7.63 C-1.13 6.6 -1.13 5.57 -1.13 4.51 C-1 2 -1 2 0 0 Z " fill="#46646D" transform="translate(655,956)"/>
<path d="M0 0 C1.57 0.01 3.14 0.04 4.71 0.07 C5.51 0.08 6.31 0.09 7.14 0.1 C9.12 0.12 11.1 0.16 13.09 0.2 C13.71 2.07 13.71 2.07 14.09 4.2 C12.09 6.2 12.09 6.2 9.48 6.39 C8.49 6.37 7.49 6.34 6.46 6.32 C4.96 6.29 4.96 6.29 3.42 6.27 C2.65 6.24 1.88 6.22 1.09 6.2 C1.09 7.85 1.09 9.5 1.09 11.2 C5.05 11.2 9.01 11.2 13.09 11.2 C13.42 12.85 13.75 14.5 14.09 16.2 C13.09 17.2 13.09 17.2 10.36 17.29 C9.26 17.28 8.16 17.27 7.02 17.26 C5.37 17.24 5.37 17.24 3.68 17.23 C2.82 17.22 1.97 17.21 1.09 17.2 C1.09 18.52 1.09 19.84 1.09 21.2 C8.02 21.69 8.02 21.69 15.09 22.2 C15.42 23.85 15.75 25.5 16.09 27.2 C13.85 29.44 8.66 28.38 5.65 28.38 C4.76 28.4 3.88 28.41 2.97 28.42 C2.12 28.42 1.27 28.42 0.4 28.43 C-0.38 28.43 -1.16 28.43 -1.96 28.44 C-3.91 28.2 -3.91 28.2 -5.91 26.2 C-6.17 23.8 -6.17 23.8 -6.18 20.82 C-6.18 19.75 -6.18 18.69 -6.19 17.59 C-6.18 15.91 -6.18 15.91 -6.16 14.2 C-6.17 13.08 -6.18 11.96 -6.19 10.8 C-6.18 9.74 -6.18 8.67 -6.18 7.57 C-6.18 6.59 -6.18 5.61 -6.17 4.59 C-5.71 0.26 -4.18 0.21 0 0 Z " fill="#46646D" transform="translate(762.9140625,955.8046875)"/>
<path d="M0 0 C0.74 0.01 1.49 0.02 2.25 0.03 C3.46 0.04 3.46 0.04 4.69 0.05 C5.96 0.08 5.96 0.08 7.25 0.1 C8.52 0.12 8.52 0.12 9.82 0.13 C11.92 0.15 14.02 0.19 16.12 0.23 C16.12 1.55 16.12 2.87 16.12 4.23 C12.55 6.61 10.25 6.61 6.08 6.88 C5.11 7.05 5.11 7.05 4.12 7.23 C3.79 7.89 3.46 8.55 3.12 9.23 C4.17 9.28 4.17 9.28 5.24 9.34 C6.6 9.44 6.6 9.44 8 9.54 C8.9 9.6 9.81 9.66 10.74 9.72 C13.12 10.23 13.12 10.23 15.12 13.23 C14.46 14.55 13.8 15.87 13.12 17.23 C9.82 17.23 6.52 17.23 3.12 17.23 C3.45 18.55 3.78 19.87 4.12 21.23 C8.08 21.56 12.04 21.89 16.12 22.23 C16.45 23.88 16.78 25.53 17.12 27.23 C14.96 29.38 10.17 28.41 7.18 28.41 C6.35 28.43 5.51 28.44 4.65 28.45 C3.44 28.45 3.44 28.45 2.22 28.46 C1.48 28.46 0.74 28.47 -0.02 28.47 C-1.88 28.23 -1.88 28.23 -3.88 26.23 C-4.14 23.83 -4.14 23.83 -4.15 20.85 C-4.15 19.78 -4.15 18.72 -4.15 17.62 C-4.14 15.94 -4.14 15.94 -4.13 14.23 C-4.14 13.11 -4.14 11.99 -4.15 10.84 C-4.15 9.77 -4.15 8.7 -4.15 7.6 C-4.14 6.62 -4.14 5.64 -4.14 4.63 C-3.82 1.64 -3.09 0.37 0 0 Z " fill="#46646D" transform="translate(500.87939453125,904.77294921875)"/>
<path d="M0 0 C1.07 -0.06 1.07 -0.06 2.16 -0.12 C5.05 -0.17 7.44 -0.07 9.79 1.73 C12.22 4.47 13.88 6.92 13.75 10.62 C13.19 14.5 13.19 14.5 11.31 17 C9.19 18.5 9.19 18.5 7.19 18.5 C7.19 19.16 7.19 19.82 7.19 20.5 C4.22 20.83 1.25 21.16 -1.81 21.5 C-2.47 23.81 -3.13 26.12 -3.81 28.5 C-8.69 27.62 -8.69 27.62 -9.81 26.5 C-10.07 22.53 -10 18.54 -10 14.56 C-10.01 13.44 -10.02 12.32 -10.04 11.16 C-10.04 10.09 -10.04 9.01 -10.04 7.91 C-10.05 6.92 -10.05 5.93 -10.06 4.91 C-9.48 -0.82 -4.59 0.07 0 0 Z M-0.81 6.5 C-3.1 8.34 -3.1 8.34 -2.94 11.12 C-2.9 11.91 -2.86 12.69 -2.81 13.5 C1.72 14.43 1.72 14.43 6.19 13.5 C6.44 11.08 6.44 11.08 6.19 8.5 C3.23 6.13 3.23 6.13 -0.81 6.5 Z " fill="#46646D" transform="translate(545.8125,955.5)"/>
<path d="M0 0 C0.75 0.01 1.5 0.01 2.27 0.02 C3.08 0.02 3.89 0.02 4.72 0.03 C5.57 0.03 6.42 0.04 7.3 0.05 C8.15 0.06 9 0.06 9.88 0.06 C12 0.08 14.12 0.09 16.23 0.11 C16.56 1.43 16.89 2.75 17.23 4.11 C13.78 6.41 13 6.25 9.05 5.74 C8.15 5.63 7.24 5.52 6.32 5.4 C5.29 5.26 5.29 5.26 4.23 5.11 C4.23 7.09 4.23 9.07 4.23 11.11 C7.86 11.11 11.49 11.11 15.23 11.11 C15.56 12.43 15.89 13.75 16.23 15.11 C14.23 17.11 14.23 17.11 11.85 17.31 C10.95 17.29 10.04 17.26 9.11 17.24 C7.74 17.21 7.74 17.21 6.35 17.18 C5.65 17.16 4.95 17.14 4.23 17.11 C4.23 18.76 4.23 20.41 4.23 22.11 C5.08 22.09 5.92 22.07 6.79 22.04 C8.43 22.02 8.43 22.02 10.11 21.99 C11.74 21.95 11.74 21.95 13.41 21.92 C16.23 22.11 16.23 22.11 18.23 24.11 C17.86 26.24 17.86 26.24 17.23 28.11 C14.09 28.14 10.94 28.16 7.8 28.18 C6.9 28.18 6 28.19 5.08 28.2 C3.79 28.21 3.79 28.21 2.49 28.21 C1.7 28.22 0.91 28.22 0.09 28.23 C-1.77 28.11 -1.77 28.11 -2.77 27.11 C-2.87 25.2 -2.9 23.28 -2.9 21.36 C-2.9 20.2 -2.9 19.03 -2.9 17.83 C-2.9 16.61 -2.89 15.38 -2.89 14.11 C-2.89 12.89 -2.9 11.66 -2.9 10.39 C-2.9 9.23 -2.9 8.06 -2.9 6.86 C-2.9 5.79 -2.9 4.71 -2.9 3.6 C-2.72 0.17 -2.72 0.17 0 0 Z " fill="#46646D" transform="translate(473.765869140625,955.886474609375)"/>
<path d="M0 0 C1.24 -0.02 2.48 -0.03 3.75 -0.05 C7 0.31 7 0.31 9 1.58 C10 3.31 10 3.31 9.69 5.5 C9.35 6.4 9.35 6.4 9 7.31 C8.18 7.29 7.36 7.27 6.52 7.24 C5.44 7.22 4.36 7.21 3.25 7.19 C2.18 7.16 1.12 7.14 0.02 7.12 C-2.99 7.31 -4.64 7.44 -7 9.31 C-7.7 11.73 -7.7 11.73 -7.75 14.44 C-7.83 16.05 -7.91 17.65 -8 19.31 C-2.06 20.3 -2.06 20.3 4 21.31 C4.33 19.33 4.66 17.35 5 15.31 C6.66 14.93 8.32 14.6 10 14.31 C11.57 15.88 11.28 17.45 11.38 19.62 C11.3 22.95 11.17 24.06 9.25 26.88 C4.2 29.11 -0.57 29.04 -6 28.31 C-10.45 26.2 -13.23 23.94 -15 19.31 C-15.61 14.88 -16.08 10.41 -13.98 6.34 C-9.78 1.19 -6.45 0.02 0 0 Z " fill="#46646D" transform="translate(879,904.6875)"/>
<path d="M0 0 C1.46 0 2.92 0.02 4.38 0.04 C5.11 0.04 5.85 0.04 6.61 0.04 C12.09 0.09 12.09 0.09 14.38 1.23 C12.5 5.11 12.5 5.11 11.38 6.23 C9.86 6.46 8.34 6.64 6.81 6.79 C5.99 6.88 5.16 6.96 4.31 7.05 C3.35 7.14 3.35 7.14 2.38 7.23 C2.38 8.22 2.38 9.21 2.38 10.23 C3.01 10.29 3.65 10.35 4.31 10.41 C5.13 10.5 5.96 10.58 6.81 10.67 C8.05 10.79 8.05 10.79 9.31 10.91 C11.38 11.23 11.38 11.23 12.38 12.23 C12.38 13.88 12.38 15.53 12.38 17.23 C7.42 17.73 7.42 17.73 2.38 18.23 C2.38 19.22 2.38 20.21 2.38 21.23 C6 21.56 9.63 21.89 13.38 22.23 C13.71 23.88 14.03 25.53 14.38 27.23 C12.85 28.75 11.49 28.36 9.38 28.36 C8.57 28.36 7.77 28.37 6.94 28.37 C6.09 28.36 5.25 28.36 4.38 28.36 C3.53 28.36 2.68 28.36 1.81 28.37 C1.01 28.37 0.2 28.36 -0.62 28.36 C-1.37 28.36 -2.11 28.36 -2.88 28.36 C-4.62 28.23 -4.62 28.23 -5.62 27.23 C-5.88 23.09 -5.81 18.94 -5.81 14.79 C-5.82 13.62 -5.84 12.45 -5.85 11.24 C-5.85 10.13 -5.85 9.01 -5.86 7.86 C-5.86 6.83 -5.86 5.8 -5.87 4.74 C-5.46 0.5 -4.11 0.26 0 0 Z " fill="#46646D" transform="translate(575.625,955.76953125)"/>
<path d="M0 0 C0.33 0 0.66 0 1 0 C1.2 0.64 1.41 1.28 1.62 1.93 C1.89 2.76 2.16 3.59 2.44 4.44 C2.7 5.26 2.97 6.08 3.25 6.93 C3.82 8.96 3.82 8.96 5 10 C5.39 12.34 5.72 14.65 6 17 C6.09 17.71 6.17 18.42 6.26 19.15 C8.98 42.59 8.98 42.59 7 52 C3.78 54.15 2.72 54.29 -1 54 C-2.56 52.44 -2.13 50.94 -2.15 48.77 C-2.15 47.88 -2.16 46.98 -2.16 46.05 C-2.17 44.58 -2.17 44.58 -2.17 43.09 C-2.17 42.08 -2.17 41.08 -2.18 40.05 C-2.18 37.92 -2.19 35.79 -2.19 33.66 C-2.19 30.41 -2.21 27.16 -2.22 23.92 C-2.23 21.85 -2.23 19.78 -2.23 17.71 C-2.24 16.74 -2.24 15.78 -2.25 14.78 C-2.23 9.46 -1.75 5.04 0 0 Z " fill="#46646D" transform="translate(559,807)"/>
<path d="M0 0 C1.68 0.29 3.34 0.62 5 1 C5.05 2.2 5.1 3.41 5.15 4.65 C5.22 6.22 5.3 7.8 5.38 9.38 C5.41 10.17 5.44 10.96 5.47 11.78 C5.52 16.37 5.52 16.37 8 20 C10.66 20.57 13.29 20.74 16 21 C16.09 19.21 16.09 19.21 16.18 17.39 C16.27 15.82 16.35 14.25 16.44 12.69 C16.48 11.9 16.52 11.12 16.56 10.31 C16.6 9.55 16.64 8.79 16.68 8.01 C16.72 7.32 16.76 6.62 16.79 5.9 C17 4 17 4 18 1 C20.06 0.31 20.06 0.31 22 0 C24.47 3.71 24.3 6.59 24.25 10.88 C24.26 11.58 24.27 12.29 24.27 13.02 C24.25 18.45 23.56 22.14 20.06 26.31 C15.45 28.85 11.15 28.77 6 28 C1.82 25.7 0.36 23.49 -1 19 C-1.26 15.91 -1.23 12.85 -1.19 9.75 C-1.19 8.92 -1.19 8.09 -1.19 7.24 C-1.14 1.14 -1.14 1.14 0 0 Z " fill="#46646D" transform="translate(395,905)"/>
<path d="M0 0 C2.01 0.29 4.01 0.62 6 1 C6.33 2.32 6.66 3.64 7 5 C7.66 5 8.32 5 9 5 C9.33 5.66 9.66 6.32 10 7 C11.98 4.69 13.96 2.38 16 0 C18.48 0.5 18.48 0.5 21 1 C20.67 2.98 20.34 4.96 20 7 C19.34 7 18.68 7 18 7 C17.01 9.97 16.02 12.94 15 16 C15.99 16.33 16.98 16.66 18 17 C19.42 18.74 19.42 18.74 20.75 20.88 C21.2 21.57 21.65 22.27 22.11 22.99 C23 25 23 25 22 28 C19.74 28.25 19.74 28.25 17 28 C14.98 26.25 14.98 26.25 13.19 24 C12.58 23.26 11.98 22.51 11.36 21.75 C10.91 21.17 10.46 20.6 10 20 C9.57 20.76 9.13 21.53 8.69 22.31 C6.06 26.49 6.06 26.49 4 28 C1.31 28.19 1.31 28.19 -1 28 C-1.72 26.28 -1.72 26.28 -2 24 C-0.36 21.52 1.56 19.44 3.53 17.22 C5.23 15.15 5.23 15.15 4.84 12.87 C4 10.79 4 10.79 2 8.56 C-0.08 5.9 -0.72 4.33 -1 1 C-0.67 0.67 -0.34 0.34 0 0 Z " fill="#46646D" transform="translate(503,956)"/>
<path d="M0 0 C-1.88 4.75 -1.88 4.75 -3 7 C-3.75 13.43 -3.66 18.38 0.42 23.56 C4.58 27.35 7.77 28.38 13.38 28.25 C14.51 28.22 15.65 28.2 16.82 28.17 C20.28 27.98 23.59 27.63 27 27 C26 30 26 30 23.78 31.35 C16.39 34.67 10.46 37.22 2.38 34.88 C-3.29 32.71 -6.82 30.09 -9.88 24.69 C-11.62 18.97 -11.46 13.83 -10 8 C-9.34 8 -8.68 8 -8 8 C-7.9 7.24 -7.79 6.47 -7.69 5.69 C-6.44 0.81 -5.03 0 0 0 Z " fill="#46646D" transform="translate(662,830)"/>
<path d="M0 0 C1.04 -0.02 2.08 -0.03 3.15 -0.05 C6.36 0.35 7.71 1.16 10.06 3.31 C9.73 4.63 9.4 5.95 9.06 7.31 C4.11 7.31 -0.84 7.31 -5.94 7.31 C-6.14 8.72 -6.35 10.12 -6.56 11.56 C-6.68 12.35 -6.79 13.14 -6.91 13.95 C-6.94 16.69 -6.47 18.06 -4.94 20.31 C-1.37 21.39 1.11 21.31 4.81 20.75 C6.42 20.53 6.42 20.53 8.06 20.31 C10.06 22.31 10.06 22.31 10.06 25.31 C6.22 28.89 1.8 28.93 -3.21 28.8 C-7.65 28.01 -10.18 25.78 -12.94 22.31 C-15.05 18.63 -15.37 15.52 -14.94 11.31 C-13.44 7.94 -13.44 7.94 -11.94 5.31 C-11.28 5.31 -10.62 5.31 -9.94 5.31 C-9.61 4.32 -9.28 3.33 -8.94 2.31 C-5.5 0.02 -4.05 0.02 0 0 Z " fill="#46646D" transform="translate(736.9375,955.6875)"/>
<path d="M0 0 C2.62 0.5 2.62 0.5 4.69 2.81 C6.9 6.58 8.26 10.69 9.68 14.81 C10.48 17.1 11.37 19.29 12.38 21.5 C13.62 24.5 13.62 24.5 13.62 27.5 C11.81 28.19 11.81 28.19 9.62 28.5 C7.88 27.19 7.88 27.19 6.62 25.5 C6.62 24.84 6.62 24.18 6.62 23.5 C5.66 23.25 4.69 23 3.69 22.75 C2.68 22.34 1.67 21.92 0.62 21.5 C-0.25 19.38 -0.25 19.38 -0.38 17.5 C0.62 17.17 1.61 16.84 2.62 16.5 C1.63 14.52 0.64 12.54 -0.38 10.5 C-2.02 11.73 -2.02 11.73 -3.38 13.5 C-3.12 15.53 -3.12 15.53 -2.38 17.5 C-2.38 18.49 -2.38 19.48 -2.38 20.5 C-3.01 20.79 -3.65 21.08 -4.31 21.38 C-6.53 22.33 -6.53 22.33 -7.38 24.5 C-8.04 24.5 -8.69 24.5 -9.38 24.5 C-9.7 25.82 -10.04 27.14 -10.38 28.5 C-11.37 28.17 -12.36 27.84 -13.38 27.5 C-13.72 22.6 -12.84 19.84 -10.38 15.62 C-9.82 14.66 -9.26 13.69 -8.69 12.7 C-8.25 11.97 -7.82 11.25 -7.38 10.5 C-6.71 10.5 -6.06 10.5 -5.38 10.5 C-5.7 9.51 -6.04 8.52 -6.38 7.5 C-5.16 3.65 -4.22 0.89 0 0 Z " fill="#46646D" transform="translate(371.375,904.5)"/>
<path d="M0 0 C0.99 0.33 1.98 0.66 3 1 C3.08 2.05 3.17 3.1 3.25 4.19 C3.67 8.01 3.67 8.01 6.02 10.27 C9.8 15.49 8.61 22.78 8 29 C6.07 39.93 6.07 39.93 4 42 C3.6 44.01 3.26 46.04 2.94 48.06 C2.76 49.17 2.58 50.27 2.4 51.41 C2.27 52.26 2.14 53.12 2 54 C0 53 0 53 -1 50 C-1.09 48.39 -1.13 46.79 -1.13 45.18 C-1.13 44.2 -1.14 43.22 -1.14 42.21 C-1.14 41.16 -1.13 40.11 -1.13 39.02 C-1.13 37.94 -1.13 36.86 -1.14 35.75 C-1.14 33.46 -1.13 31.18 -1.13 28.89 C-1.13 25.38 -1.13 21.87 -1.14 18.36 C-1.14 16.14 -1.13 13.93 -1.13 11.71 C-1.13 10.65 -1.14 9.6 -1.14 8.51 C-1.14 7.54 -1.13 6.56 -1.13 5.56 C-1.13 4.7 -1.13 3.85 -1.13 2.96 C-1 1 -1 1 0 0 Z " fill="#46646D" transform="translate(348,794)"/>
<path d="M0 0 C1.14 -0.04 2.28 -0.08 3.46 -0.12 C6.62 0.44 6.62 0.44 9.04 2.96 C9.56 3.78 10.09 4.6 10.62 5.44 C8.62 7.44 8.62 7.44 5.15 7.63 C3.77 7.62 2.38 7.6 1 7.56 C0.29 7.55 -0.41 7.54 -1.14 7.54 C-2.89 7.51 -4.63 7.48 -6.38 7.44 C-7.48 13.27 -7.65 16.2 -4.38 21.44 C-3.6 21.43 -2.83 21.41 -2.04 21.4 C-1.04 21.39 -0.03 21.38 1 21.38 C2 21.36 3 21.35 4.02 21.34 C6.62 21.44 6.62 21.44 8.62 22.44 C7.26 25.6 6.64 26.43 3.62 28.44 C-2.04 29.22 -5.11 27.79 -9.68 24.73 C-11.38 23.44 -11.38 23.44 -13.38 21.44 C-14.75 10.01 -14.75 10.01 -12.32 5.47 C-11 4.19 -11 4.19 -8.38 2.44 C-5.62 -0.32 -3.85 0.07 0 0 Z " fill="#46646D" transform="translate(627.375,904.5625)"/>
<path d="M0 0 C4.9 0.42 6.8 2.38 10 6 C11.91 9.3 11.91 9.3 13.62 12.88 C14.19 14.05 14.76 15.22 15.35 16.43 C18.07 22.33 20.33 27.44 21 34 C16.7 33.75 14.52 33.44 11.19 30.62 C6.9 25.48 5.28 20.69 4.06 14.19 C3.13 9.29 1.7 4.68 0 0 Z " fill="#46646D" transform="translate(585,825)"/>
<path d="M0 0 C1.68 0.29 3.34 0.62 5 1 C4.62 4.28 3.74 5.29 1.44 7.81 C-0.94 10.48 -1 11 -1.31 14.88 C-1.21 15.91 -1.11 16.94 -1 18 C-1.95 17.98 -2.9 17.96 -3.88 17.94 C-6.91 17.77 -6.91 17.77 -9 19 C-9.47 20.9 -9.47 20.9 -9.62 23.06 C-9.81 25.01 -9.81 25.01 -10 27 C-13.75 28.12 -13.75 28.12 -16 27 C-18.04 20.3 -15.63 15.25 -13 9 C-12.34 9 -11.68 9 -11 9 C-10.67 9.66 -10.34 10.32 -10 11 C-9.22 10.01 -8.43 9.02 -7.62 8 C-6.76 7.01 -5.89 6.02 -5 5 C-4.34 5 -3.68 5 -3 5 C-2.69 4.36 -2.38 3.72 -2.06 3.06 C-1 1 -1 1 0 0 Z " fill="#46646D" transform="translate(792,905)"/>
<path d="M0 0 C6.6 0 13.2 0 20 0 C20.33 0.66 20.66 1.32 21 2 C18.41 5 17.08 5.37 13 7 C12.67 13.6 12.34 20.2 12 27 C10.68 27 9.36 27 8 27 C6.45 25.45 6.78 23.9 6.68 21.75 C6.62 20.47 6.62 20.47 6.56 19.16 C6.5 17.81 6.5 17.81 6.44 16.44 C6.39 15.54 6.35 14.63 6.31 13.71 C6.2 11.47 6.1 9.24 6 7 C3.69 6.01 1.38 5.02 -1 4 C-0.67 2.68 -0.34 1.36 0 0 Z " fill="#46646D" transform="translate(565,905)"/>
<path d="M0 0 C2.66 0.32 2.66 0.32 4.54 2.08 C5.09 2.86 5.65 3.64 6.22 4.45 C7.12 5.68 7.12 5.68 8.03 6.94 C9.3 8.8 10.55 10.68 11.79 12.57 C13.8 15.52 16.07 17.87 18.66 20.32 C17.91 22.26 17.91 22.26 16.66 24.32 C14.58 24.95 14.58 24.95 12.66 25.32 C10.99 23.2 9.32 21.07 7.66 18.95 C7.18 18.34 6.71 17.74 6.21 17.12 C2.66 12.55 2.66 12.55 2.66 10.32 C0.68 11.31 0.68 11.31 -1.34 12.32 C-3.34 10.32 -3.34 10.32 -3.57 8.19 C-3.55 6.99 -3.55 6.99 -3.53 5.76 C-3.52 4.95 -3.51 4.15 -3.51 3.32 C-3.26 0.41 -2.9 0.4 0 0 Z " fill="#46646D" transform="translate(832.33984375,904.6796875)"/>
<path d="M0 0 C4.21 0.49 5.95 1.49 8.62 4.75 C9.52 5.83 9.52 5.83 10.43 6.93 C12.15 9.19 13.61 11.52 15 14 C17.22 16.22 19.08 16.93 22 18 C20.85 20.47 19.95 22.05 18 24 C16.12 23.94 16.12 23.94 14 23 C12.13 20.88 10.48 18.68 8.85 16.37 C6.59 13.38 5.37 12.1 1.69 11.12 C0.8 11.08 -0.09 11.04 -1 11 C-2.03 6.59 -2.04 4.07 0 0 Z " fill="#46646D" transform="translate(531,906)"/>
<path d="M0 0 C1.65 0.33 3.3 0.66 5 1 C5 9.58 5 18.16 5 27 C3.35 27.33 1.7 27.66 0 28 C-1.93 25.1 -2.51 23.46 -3.19 20.12 C-3.37 19.28 -3.55 18.44 -3.73 17.57 C-4.02 14.79 -3.74 12.69 -3 10 C-2.67 9.67 -2.34 9.34 -2 9 C-2.02 8.05 -2.04 7.1 -2.06 6.12 C-2 3 -2 3 0 0 Z " fill="#46646D" transform="translate(480,905)"/>
<path d="M0 0 C1.94 0.69 1.94 0.69 2.94 2.69 C3.18 6.52 3.12 10.35 3.12 14.19 C3.14 15.26 3.15 16.33 3.16 17.43 C3.16 18.46 3.17 19.48 3.17 20.53 C3.17 21.47 3.18 22.41 3.18 23.38 C2.94 25.69 2.94 25.69 0.94 27.69 C-0.71 27.36 -2.36 27.03 -4.06 26.69 C-4.06 18.11 -4.06 9.53 -4.06 0.69 C-2.06 -0.31 -2.06 -0.31 0 0 Z " fill="#46646D" transform="translate(640.0625,956.3125)"/>
<path d="M0 0 C0.78 0.04 1.57 0.08 2.38 0.12 C3.16 2.9 3.49 5.35 3.47 8.23 C3.47 8.99 3.47 9.74 3.46 10.52 C3.45 11.3 3.45 12.07 3.44 12.88 C3.43 13.67 3.43 14.46 3.42 15.28 C3.41 17.23 3.39 19.18 3.38 21.12 C2.72 21.12 2.05 21.12 1.38 21.12 C1.04 22.12 0.72 23.11 0.38 24.12 C-2.19 25.31 -2.19 25.31 -4.62 26.12 C-6.02 21.39 -5.56 16.88 -5.31 12 C-5.26 10.62 -5.26 10.62 -5.21 9.21 C-5.16 8.34 -5.12 7.46 -5.07 6.55 C-5.04 5.75 -5 4.95 -4.96 4.12 C-4.41 0.83 -3.25 0.15 0 0 Z " fill="#46646D" transform="translate(821.625,828.875)"/>
<path d="M0 0 C4.71 0.71 4.71 0.71 6 2 C6.28 5.43 6.23 8.87 6.25 12.31 C6.27 13.28 6.29 14.24 6.31 15.23 C6.32 16.16 6.32 17.09 6.33 18.05 C6.34 18.9 6.35 19.76 6.36 20.63 C5.92 23.54 5.05 24.92 3 27 C2.01 27 1.02 27 0 27 C-1.3 24.4 -1.13 22.49 -1.13 19.59 C-1.13 18.52 -1.14 17.45 -1.14 16.34 C-1.13 15.22 -1.13 14.09 -1.12 12.94 C-1.13 11.81 -1.13 10.68 -1.14 9.52 C-1.14 8.45 -1.13 7.38 -1.13 6.28 C-1.13 5.29 -1.13 4.3 -1.13 3.28 C-1 1 -1 1 0 0 Z " fill="#46646D" transform="translate(596,905)"/>
<path d="M0 0 C3.12 -0.03 6.25 -0.05 9.38 -0.06 C10.71 -0.08 10.71 -0.08 12.07 -0.09 C13.35 -0.09 13.35 -0.09 14.65 -0.1 C15.43 -0.1 16.22 -0.11 17.03 -0.11 C19 0 19 0 21 1 C19.99 4.26 18.91 5.06 15.94 6.88 C11.41 8.63 7.46 7.56 3 6 C1.65 5.36 0.32 4.7 -1 4 C-0.67 2.68 -0.34 1.36 0 0 Z " fill="#46646D" transform="translate(429,905)"/>
<path d="M0 0 C5.64 -0.59 8.58 0.53 13.3 3.61 C15 5 15 5 17 8 C17.26 10.69 17.09 13.29 17 16 C14 16 14 16 12.17 14.17 C11.19 12.97 11.19 12.97 10.19 11.75 C7.79 8.92 5.68 6.54 2.5 4.62 C1.67 4.09 0.85 3.55 0 3 C0 2.01 0 1.02 0 0 Z " fill="#46646D" transform="translate(805,795)"/>
<path d="M0 0 C0.75 1.75 0.75 1.75 1 4 C-0.81 6.25 -0.81 6.25 -3 8 C-3.66 8 -4.32 8 -5 8 C-5 8.66 -5 9.32 -5 10 C-6.96 11.39 -8.96 12.73 -11 14 C-11.66 13.67 -12.32 13.34 -13 13 C-12.38 11.02 -11.76 9.04 -11.12 7.06 C-10.78 5.96 -10.43 4.86 -10.07 3.72 C-8.13 -1.22 -4.81 -0.09 0 0 Z " fill="#46646D" transform="translate(598,793)"/>
<path d="M0 0 C1.32 1.32 2.64 2.64 4 4 C2.62 6 2.62 6 1 8 C0.34 8 -0.32 8 -1 8 C-1.62 5.12 -1.62 5.12 -2 2 C-1.34 1.34 -0.68 0.68 0 0 Z " fill="#46646D" transform="translate(462,913)"/>
<path d="M0 0 C-0.33 0.99 -0.66 1.98 -1 3 C-1.99 3 -2.98 3 -4 3 C-4.33 4.32 -4.66 5.64 -5 7 C-5.33 4.69 -5.66 2.38 -6 0 C-3.51 -1.25 -2.59 -0.78 0 0 Z " fill="#46646D" transform="translate(782,906)"/>
<path d="M0 0 C1.98 0.5 1.98 0.5 4 1 C3.67 2.65 3.34 4.3 3 6 C1.68 5.34 0.36 4.68 -1 4 C-0.67 2.68 -0.34 1.36 0 0 Z " fill="#46646D" transform="translate(530,923)"/>
<path d="M0 0 C1.98 0.5 1.98 0.5 4 1 C3.34 2.32 2.68 3.64 2 5 C1.01 4.34 0.02 3.68 -1 3 C-0.67 2.01 -0.34 1.02 0 0 Z " fill="#46646D" transform="translate(811,905)"/>
<path d="M0 0 C0.99 0 1.98 0 3 0 C2.67 1.32 2.34 2.64 2 4 C1.01 4 0.02 4 -1 4 C-0.67 2.68 -0.34 1.36 0 0 Z " fill="#46646D" transform="translate(572,824)"/>
<path d="M0 0 C0.99 0.33 1.98 0.66 3 1 C2.34 2.32 1.68 3.64 1 5 C0.34 5 -0.32 5 -1 5 C-0.67 3.35 -0.34 1.7 0 0 Z " fill="#46646D" transform="translate(438,918)"/>
<path d="M0 0 C0.99 0.33 1.98 0.66 3 1 C3 1.99 3 2.98 3 4 C1.68 4 0.36 4 -1 4 C-0.67 2.68 -0.34 1.36 0 0 Z " fill="#46646D" transform="translate(348,856)"/>
<path d="M0 0 C1.32 0 2.64 0 4 0 C4 0.66 4 1.32 4 2 C2.68 2 1.36 2 0 2 C0 1.34 0 0.68 0 0 Z " fill="#46646D" transform="translate(437,930)"/>
<path d="M0 0 C0.99 0 1.98 0 3 0 C3 0.66 3 1.32 3 2 C2.01 2 1.02 2 0 2 C0 1.34 0 0.68 0 0 Z " fill="#46646D" transform="translate(576,817)"/>
<path d="M0 0 C1 4 1 4 1 4 Z " fill="#46646D" transform="translate(548,906)"/>
<path d="M0 0 C1 4 1 4 1 4 Z " fill="#46646D" transform="translate(575,820)"/>
<path d="M0 0 C2 1 2 1 2 1 Z " fill="#46646D" transform="translate(790,831)"/>
<path d="M0 0 C2 1 2 1 2 1 Z " fill="#46646D" transform="translate(663,828)"/>
<path d="" fill="#46646D" transform="translate(0,0)"/>
<path d="" fill="#46646D" transform="translate(0,0)"/>
</svg>
